<svg width="21" height="13" viewBox="0 0 21 13" xmlns="http://www.w3.org/2000/svg"><path d="M10.54 12.969C4.663 12.969.507 8.164.507 6.672c0-1.5 4.133-6.297 10.031-6.297 5.938 0 10.024 4.797 10.024 6.297 0 1.492-4.079 6.297-10.024 6.297zm0-2.203c2.273 0 4.1-1.868 4.1-4.094a4.073 4.073 0 0 0-4.1-4.086c-2.29 0-4.118 1.797-4.11 4.086.008 2.226 1.82 4.094 4.11 4.094zm0-2.602A1.51 1.51 0 0 1 9.03 6.672c0-.82.68-1.5 1.508-1.5.82 0 1.508.68 1.508 1.5 0 .812-.688 1.492-1.508 1.492z" fill="#2A5BD7" fill-rule="nonzero"/></svg>